<?xml version="1.0" encoding="utf-8"?>
<!-- Generator: Adobe Illustrator 23.0.1, SVG Export Plug-In . SVG Version: 6.00 Build 0)  -->
<svg version="1.1" id="Laag_1" xmlns="http://www.w3.org/2000/svg" xmlns:xlink="http://www.w3.org/1999/xlink" x="0px" y="0px"
	 viewBox="0 0 1190.55 841.89" style="enable-background:new 0 0 1190.55 841.89;" xml:space="preserve">
<style type="text/css">
	.st0{fill:#FFFFFF;}
</style>
<g>
	<path d="M671.24,586.9c45.22-104.19,35.15-197.17-30.61-288.12c-48.66-67.29-89.4-63.61-146.58-43.5
		c-11.64,4.09-23.43,7.79-38.03,6.24c54.16-33.68,108.08-67.75,162.89-100.34c4.74-2.82,18.77,1.61,22.64,6.93
		c67.17,92.36,121.06,188.15,117.94,309.56c-1.76,68.68,14.7,137.82,22.92,206.75c0.95,7.99,1.65,16.01,2.25,21.93
		c-55.22-20.28-108.7-40.81-162.87-59.34c-20.72-7.09-43.74-15.34-64.38-12.7c-25.06,3.2-32.81-9.5-43.55-25.66
		c-30.49-45.88-45.55-96.47-48.21-153.83C512.46,531.73,591.96,555.2,671.24,586.9z"/>
	<path d="M514.5,81.78c67.81-11.48,135.53-23.54,203.55-33.57c6.83-1.01,21.43,9.35,22.36,15.87
		c12.05,84.34,22.3,168.94,32.81,253.5c0.18,1.47-2.16,3.25-5.4,7.78c-9.67-27.09-16.05-53.59-28.19-77.13
		c-21.71-42.1-45.74-83.15-71.4-122.97c-6.66-10.34-22.31-18.78-34.94-20.66c-38.93-5.79-78.39-7.98-117.64-11.57
		C515.28,89.29,514.89,85.54,514.5,81.78z"/>
	<path d="M555.95,311.96c-22.28,30.63-44.25,61.49-67.3,91.53c-2.3,2.99-13.37,3.56-16.66,0.81c-28.87-24.14-50.06-53.83-66.1-94.02
		c50.59-3.8,95.93-7.2,141.27-10.6C550.09,303.77,553.02,307.87,555.95,311.96z M512.81,330.88c-22.84,1-39.43,1.73-60.8,2.67
		c9.53,14.98,17.32,27.22,26.75,42.05C491.06,359.43,500.3,347.3,512.81,330.88z"/>
	<path class="st0" d="M512.81,330.88c-12.51,16.42-21.75,28.55-34.05,44.72c-9.43-14.83-17.22-27.07-26.75-42.05
		C473.37,332.61,489.97,331.88,512.81,330.88z"/>
</g>
<path d="M888.16,367.22"/>
<g>
	<path d="M205.13,748.49c-3.28,0.71-6.54,1.25-9.79,1.61c-3.25,0.36-6.9,0.61-10.97,0.75l6.1,2.35c-1.86,3.42-3.42,6.94-4.71,10.54
		c-1.28,3.6-2.27,7.08-2.94,10.43c-0.68,3.35-1.05,6.46-1.12,9.31c-0.07,2.85,0.18,5.24,0.75,7.17l-14.44,3
		c0.07-3.35,0.48-6.9,1.23-10.65s1.71-7.49,2.89-11.23c1.18-3.74,2.5-7.4,3.96-10.97c1.46-3.57,2.94-6.85,4.44-9.84
		c-3.42,0-6.63-0.16-9.63-0.48c-3-0.32-6.1-0.8-9.31-1.44l4.39-8.02c4.78,1.21,10.11,1.87,16,1.98c5.88,0.11,12.89-0.37,21.02-1.44
		c1.21-0.14,2.03-0.27,2.46-0.38c0.43-0.11,0.78-0.16,1.07-0.16h2.14L205.13,748.49z"/>
	<path d="M286.55,739.5c-6.28,8.99-10.81,17.05-13.59,24.18c-2.78,7.13-4.25,13.37-4.39,18.72c-0.07,1.64-0.07,2.96,0,3.96
		c0.07,1,0.18,2.28,0.32,3.85l-13.48,2.99c0-4.49,0.36-9,1.07-13.53c0.71-4.53,1.89-8.93,3.53-13.21c-4.07,0-7.88,0.23-11.45,0.69
		c-3.57,0.47-6.67,1.09-9.31,1.87c-1.21,3.21-2.5,6.28-3.85,9.2c-1.36,2.93-2.73,5.49-4.12,7.7c-1.39,2.21-2.77,3.98-4.12,5.3
		c-1.36,1.32-2.6,1.98-3.74,1.98c-0.86,0-1.66-0.3-2.41-0.91c-0.75-0.6-1.41-1.37-1.98-2.3c-0.57-0.93-1.02-1.93-1.34-3
		c-0.32-1.07-0.48-2.07-0.48-2.99c0-0.64,0.27-1.46,0.8-2.46c0.53-1,1.23-2.09,2.09-3.26c0.86-1.18,1.87-2.35,3.05-3.53
		c1.18-1.18,2.41-2.26,3.69-3.26c0.71-0.57,1.41-1.53,2.09-2.89c0.68-1.36,1.28-3.19,1.82-5.51c0.53-2.32,0.96-5.15,1.28-8.5
		c0.32-3.35,0.48-7.28,0.48-11.77l13.48-2.67c-0.36,3.42-1.02,7.27-1.98,11.56c-0.96,4.28-2.05,8.45-3.26,12.52
		c2.78-1,5.87-1.85,9.26-2.57c3.39-0.71,7.54-1.43,12.46-2.14c0.71-1.71,1.39-3.28,2.03-4.71c0.64-1.43,1.28-2.78,1.93-4.07
		c0.64-1.28,1.32-2.55,2.03-3.8c0.71-1.25,1.5-2.62,2.35-4.12L286.55,739.5z"/>
	<path d="M349.79,749.13c-5.14-0.57-9.77-0.91-13.91-1.02c-4.14-0.11-7.81-0.09-11.02,0.05c-1.86,3-3.51,5.89-4.97,8.67
		c-1.46,2.78-2.91,5.6-4.33,8.45c0.93-0.64,1.69-1.18,2.3-1.61c0.61-0.43,1.23-0.93,1.87-1.5c4.92-0.36,9.13-0.6,12.62-0.75
		c3.49-0.14,5.78-0.21,6.85-0.21h5.46l-6.1,8.24c-4.49-0.64-8.65-1.02-12.46-1.12c-3.82-0.11-7.76,0.09-11.82,0.59
		c-0.86,1.92-1.59,3.71-2.19,5.35c-0.61,1.64-1.23,3.46-1.87,5.46l-7.49,5.03c7.7-1.07,14.73-1.66,21.08-1.77
		c6.35-0.11,12.23,0.13,17.65,0.7l-4.39,9.09c-6.49-1-13.43-1.48-20.81-1.44c-7.38,0.04-14.43,0.55-21.13,1.55
		c0.78-1.64,1.44-3.03,1.98-4.17c0.53-1.14,0.96-2.12,1.28-2.94c0.32-0.82,0.57-1.53,0.75-2.14c0.18-0.6,0.34-1.16,0.48-1.66
		c1.35-5.63,2.82-10.77,4.39-15.41c1.57-4.64,3.32-8.88,5.24-12.73c1.57-0.71,3.1-1.43,4.6-2.14c1.5-0.71,3.49-1.71,5.99-3
		c-1.43,0.07-3.34,0.25-5.72,0.53c-2.39,0.29-5.12,0.64-8.19,1.07l5.24-7.6c5.28-0.78,10.02-1.37,14.23-1.77
		c4.21-0.39,8.04-0.66,11.5-0.8c3.46-0.14,6.63-0.18,9.52-0.11c2.89,0.07,5.62,0.21,8.19,0.43L349.79,749.13z"/>
	<path d="M450.14,765.82c-2.5,1.14-4.91,2-7.22,2.57c-2.32,0.57-4.73,1.03-7.22,1.39l5.99,2.78c-1.21,1.07-2.25,2.18-3.1,3.32
		c-0.86,1.14-1.57,2.43-2.14,3.85c-0.57,1.43-1.05,3.03-1.44,4.81c-0.39,1.78-0.7,3.89-0.91,6.31l-11.98,2.57
		c0.36-1.93,0.8-3.69,1.34-5.3c0.53-1.61,1.34-3.33,2.41-5.19c-2.43,1.5-4.58,2.82-6.47,3.96c-1.89,1.14-3.66,2.1-5.3,2.89
		c-1.64,0.79-3.17,1.37-4.6,1.76c-1.43,0.39-2.85,0.59-4.28,0.59c-1.86,0-3.69-0.6-5.51-1.82c-1.82-1.21-3.44-2.64-4.87-4.28
		c-1.43-1.64-2.6-3.35-3.53-5.14c-0.93-1.78-1.39-3.28-1.39-4.49c0-1.57,0.3-3.37,0.91-5.4c0.61-2.03,1.35-4.06,2.25-6.1
		c0.89-2.03,1.89-3.96,3-5.78c1.11-1.82,2.16-3.3,3.16-4.44c4.42-5.42,9.02-9.36,13.8-11.82c4.78-2.46,10.34-3.69,16.69-3.69
		c1.64,0,3.33,0.23,5.08,0.7c1.75,0.47,3.48,1.09,5.19,1.87c1.71,0.79,3.37,1.7,4.97,2.73c1.6,1.03,3.08,2.12,4.44,3.26l-8.35,5.88
		c-2.57-1.78-5.24-3.3-8.02-4.55c-2.78-1.25-6.17-2.44-10.16-3.58c-1.86,1.07-3.82,2.69-5.88,4.87c-2.07,2.18-4.05,4.65-5.94,7.44
		c-1.89,2.78-3.58,5.78-5.08,8.99s-2.64,6.42-3.42,9.63c0.21,0.85,0.62,1.78,1.23,2.78c0.61,1,1.34,1.93,2.19,2.78
		c0.86,0.86,1.75,1.57,2.67,2.14c0.93,0.57,1.82,0.86,2.67,0.86c1.14,0,2.75-0.43,4.82-1.28c2.07-0.86,4.17-1.96,6.31-3.32
		c2.14-1.35,4.08-2.91,5.83-4.65c1.75-1.75,2.87-3.55,3.37-5.4c-4.28,0.57-7.9,0.79-10.86,0.64c-2.96-0.14-4.98-0.43-6.05-0.86
		l5.56-7.27c4.14,0.78,8.83,1.05,14.07,0.8c5.24-0.25,10.86-1.02,16.85-2.3L450.14,765.82z"/>
	<path d="M517.87,750.74c0,3.64-2.1,6.99-6.31,10.06c-4.21,3.07-10.38,5.53-18.51,7.38c0.28,1.14,1.07,2.6,2.35,4.39
		c1.28,1.78,2.82,3.64,4.6,5.56c1.78,1.93,3.69,3.78,5.72,5.56c2.03,1.78,3.98,3.25,5.83,4.39l-11.23,5.67
		c-2.5-2-4.87-4.23-7.12-6.69c-2.25-2.46-4.21-4.89-5.88-7.28c-1.68-2.39-3.01-4.56-4.01-6.53c-1-1.96-1.5-3.41-1.5-4.33
		c0-1,0.6-1.68,1.82-2.03c4.42-1.21,8.02-2.39,10.81-3.53c2.78-1.14,4.97-2.34,6.58-3.58s2.69-2.6,3.26-4.07
		c0.57-1.46,0.86-3.12,0.86-4.98c0-0.85-0.27-1.53-0.8-2.03c-0.53-0.5-1.7-1.07-3.48-1.71c-5.78,2.71-10.63,6.1-14.55,10.16
		c-3.92,4.07-6.71,8.77-8.35,14.12c-0.79,2.43-1.73,5.17-2.84,8.24c-1.11,3.07-2.37,6.42-3.8,10.06c-0.64,1.64-1.25,2.75-1.82,3.32
		c-0.57,0.57-1.21,0.86-1.93,0.86c-0.79,0-1.7-0.32-2.73-0.96c-1.03-0.64-2-1.41-2.89-2.3c-0.89-0.89-1.66-1.85-2.3-2.89
		c-0.64-1.03-0.96-1.94-0.96-2.73c0-0.57,0.11-1.14,0.32-1.71c0.21-0.57,0.68-1.43,1.39-2.57c0.71-1.14,1.78-2.69,3.21-4.65
		c1.43-1.96,3.35-4.58,5.78-7.86c0.5-0.64,0.94-1.43,1.34-2.35c0.39-0.93,0.73-2.3,1.02-4.12c0.28-1.82,0.5-4.23,0.64-7.22
		c0.14-3,0.21-6.88,0.21-11.66l13.7-2.68c-0.36,2.43-0.8,4.78-1.34,7.06c-0.53,2.28-1.09,4.53-1.66,6.74
		c4.56-4.78,8.43-8.27,11.61-10.49c3.17-2.21,6.12-3.32,8.83-3.32c1.71,0,3.41,0.36,5.08,1.07c1.67,0.71,3.19,1.61,4.55,2.68
		c1.36,1.07,2.44,2.23,3.26,3.48C517.46,748.51,517.87,749.67,517.87,750.74z"/>
	<path d="M582.17,749.13c-5.14-0.57-9.77-0.91-13.91-1.02c-4.14-0.11-7.81-0.09-11.02,0.05c-1.86,3-3.51,5.89-4.97,8.67
		c-1.46,2.78-2.91,5.6-4.33,8.45c0.93-0.64,1.69-1.18,2.3-1.61c0.61-0.43,1.23-0.93,1.87-1.5c4.92-0.36,9.13-0.6,12.62-0.75
		c3.5-0.14,5.78-0.21,6.85-0.21h5.46l-6.1,8.24c-4.49-0.64-8.65-1.02-12.46-1.12c-3.82-0.11-7.76,0.09-11.82,0.59
		c-0.86,1.92-1.59,3.71-2.19,5.35c-0.61,1.64-1.23,3.46-1.87,5.46l-7.49,5.03c7.7-1.07,14.73-1.66,21.08-1.77
		c6.35-0.11,12.23,0.13,17.65,0.7l-4.39,9.09c-6.49-1-13.43-1.48-20.81-1.44c-7.38,0.04-14.43,0.55-21.13,1.55
		c0.78-1.64,1.44-3.03,1.98-4.17c0.53-1.14,0.96-2.12,1.28-2.94c0.32-0.82,0.57-1.53,0.75-2.14c0.18-0.6,0.34-1.16,0.48-1.66
		c1.36-5.63,2.82-10.77,4.39-15.41c1.57-4.64,3.32-8.88,5.24-12.73c1.57-0.71,3.1-1.43,4.6-2.14c1.5-0.71,3.49-1.71,5.99-3
		c-1.43,0.07-3.33,0.25-5.72,0.53c-2.39,0.29-5.12,0.64-8.19,1.07l5.24-7.6c5.28-0.78,10.02-1.37,14.23-1.77
		c4.21-0.39,8.04-0.66,11.5-0.8s6.63-0.18,9.52-0.11c2.89,0.07,5.62,0.21,8.19,0.43L582.17,749.13z"/>
	<path d="M650.21,749.13c-5.14-0.57-9.77-0.91-13.91-1.02c-4.14-0.11-7.81-0.09-11.02,0.05c-1.86,3-3.51,5.89-4.97,8.67
		c-1.46,2.78-2.91,5.6-4.33,8.45c0.93-0.64,1.69-1.18,2.3-1.61s1.23-0.93,1.87-1.5c4.92-0.36,9.13-0.6,12.62-0.75
		c3.5-0.14,5.78-0.21,6.85-0.21h5.46l-6.1,8.24c-4.49-0.64-8.65-1.02-12.46-1.12c-3.82-0.11-7.76,0.09-11.82,0.59
		c-0.86,1.92-1.59,3.71-2.19,5.35c-0.61,1.64-1.23,3.46-1.87,5.46l-7.49,5.03c7.7-1.07,14.73-1.66,21.08-1.77
		c6.35-0.11,12.23,0.13,17.65,0.7l-4.39,9.09c-6.49-1-13.43-1.48-20.81-1.44c-7.38,0.04-14.43,0.55-21.13,1.55
		c0.78-1.64,1.44-3.03,1.98-4.17c0.53-1.14,0.96-2.12,1.28-2.94c0.32-0.82,0.57-1.53,0.75-2.14c0.18-0.6,0.34-1.16,0.48-1.66
		c1.36-5.63,2.82-10.77,4.39-15.41c1.57-4.64,3.32-8.88,5.24-12.73c1.57-0.71,3.1-1.43,4.6-2.14c1.5-0.71,3.49-1.71,5.99-3
		c-1.43,0.07-3.33,0.25-5.72,0.53c-2.39,0.29-5.12,0.64-8.19,1.07l5.24-7.6c5.28-0.78,10.02-1.37,14.23-1.77
		c4.21-0.39,8.04-0.66,11.5-0.8c3.46-0.14,6.63-0.18,9.52-0.11c2.89,0.07,5.62,0.21,8.19,0.43L650.21,749.13z"/>
	<path d="M717.62,769.46c0,3.57-0.93,6.79-2.78,9.68c-1.85,2.89-4.1,5.35-6.74,7.38c-2.64,2.03-5.37,3.6-8.19,4.71
		c-2.82,1.11-5.19,1.66-7.11,1.66c-2.64,0-7.56-2.18-14.76-6.53c-2.07,1.86-3.75,3.26-5.03,4.23c-1.28,0.96-2.39,1.54-3.32,1.71
		c-0.93,0.18-1.78,0.02-2.57-0.48c-0.79-0.5-1.68-1.28-2.67-2.35c-1.71-1.78-2.68-3.1-2.89-3.96c-0.21-0.86-0.04-1.78,0.53-2.78
		c4.78-8.2,8.72-15.94,11.82-23.22c3.1-7.28,5.15-14.05,6.15-20.33l8.13,3.32l11.66-3.32c3.64,4.14,6.61,7.7,8.93,10.7
		c2.32,2.99,4.12,5.63,5.4,7.92c1.28,2.28,2.18,4.35,2.68,6.2C717.37,765.86,717.62,767.68,717.62,769.46z M705.63,770.42
		c0-3.21-1.3-6.97-3.91-11.29c-2.6-4.31-6.26-9.04-10.97-14.18c-1.43,5.85-3.37,11.86-5.83,18.03c-2.46,6.17-5.4,12.07-8.83,17.71
		c2.5,1.43,5.1,2.53,7.81,3.32c2.71,0.79,4.92,1.18,6.63,1.18c1.78,0,3.57-0.37,5.35-1.12c1.78-0.75,3.41-1.78,4.87-3.1
		c1.46-1.32,2.64-2.89,3.53-4.71C705.19,774.44,705.63,772.49,705.63,770.42z"/>
	<path d="M810.49,752.98c-3.42-1.35-6.28-2.44-8.56-3.26c-2.28-0.82-4.23-1.46-5.83-1.93c-1.61-0.46-3-0.77-4.17-0.91
		c-1.18-0.14-2.34-0.21-3.48-0.21c-2.43,0-4.65,0.57-6.69,1.71c-2.03,1.14-3.87,2.75-5.51,4.81c0.5,0.64,1.05,1.23,1.66,1.77
		c0.6,0.53,1.44,1.14,2.51,1.82c1.07,0.68,2.44,1.46,4.12,2.35c1.67,0.89,3.83,2.02,6.47,3.37c3,1.5,5.44,2.8,7.33,3.9
		c1.89,1.11,3.37,2.12,4.44,3.05c1.07,0.93,1.82,1.78,2.25,2.57c0.43,0.79,0.64,1.61,0.64,2.46c0,2.07-0.84,4.19-2.52,6.37
		c-1.68,2.18-3.87,4.17-6.58,5.99c-2.71,1.82-5.78,3.32-9.2,4.49c-3.42,1.18-6.88,1.76-10.38,1.76c-1.64,0-3.42-0.14-5.35-0.43
		c-1.93-0.29-3.91-0.7-5.94-1.23c-2.03-0.54-4.05-1.18-6.05-1.93c-2-0.75-3.89-1.59-5.67-2.52l6.1-8.34
		c4.35,1.85,8.38,3.33,12.09,4.44c3.71,1.11,6.99,1.66,9.84,1.66c5.92,0,10.81-2.32,14.66-6.96c-3.64-2.35-7.17-4.44-10.59-6.26
		c-3.42-1.82-6.56-3.44-9.42-4.87c-1.93-0.93-3.53-1.8-4.82-2.62c-1.28-0.82-2.34-1.66-3.16-2.52c-0.82-0.85-1.39-1.73-1.71-2.62
		c-0.32-0.89-0.48-1.91-0.48-3.05c0-1.5,0.77-3.21,2.3-5.14c1.53-1.92,3.53-3.73,5.99-5.4c2.46-1.68,5.26-3.08,8.4-4.23
		c3.14-1.14,6.27-1.71,9.42-1.71c4.21,0,8.2,0.43,11.98,1.28c3.78,0.86,7.92,2.39,12.41,4.6L810.49,752.98z"/>
	<path d="M895.97,739.5c-6.28,8.99-10.81,17.05-13.59,24.18c-2.78,7.13-4.24,13.37-4.39,18.72c-0.07,1.64-0.07,2.96,0,3.96
		c0.07,1,0.18,2.28,0.32,3.85l-13.48,2.99c0-4.49,0.36-9,1.07-13.53c0.71-4.53,1.89-8.93,3.53-13.21c-4.06,0-7.88,0.23-11.45,0.69
		c-3.57,0.47-6.67,1.09-9.31,1.87c-1.21,3.21-2.5,6.28-3.85,9.2c-1.36,2.93-2.73,5.49-4.12,7.7c-1.39,2.21-2.77,3.98-4.12,5.3
		c-1.36,1.32-2.6,1.98-3.74,1.98c-0.86,0-1.66-0.3-2.41-0.91c-0.75-0.6-1.41-1.37-1.98-2.3c-0.57-0.93-1.02-1.93-1.34-3
		s-0.48-2.07-0.48-2.99c0-0.64,0.27-1.46,0.8-2.46c0.54-1,1.23-2.09,2.09-3.26c0.86-1.18,1.87-2.35,3.05-3.53
		c1.18-1.18,2.41-2.26,3.69-3.26c0.71-0.57,1.41-1.53,2.09-2.89c0.68-1.36,1.28-3.19,1.82-5.51c0.54-2.32,0.96-5.15,1.28-8.5
		c0.32-3.35,0.48-7.28,0.48-11.77l13.48-2.67c-0.36,3.42-1.02,7.27-1.98,11.56c-0.96,4.28-2.05,8.45-3.26,12.52
		c2.78-1,5.87-1.85,9.26-2.57c3.39-0.71,7.54-1.43,12.46-2.14c0.71-1.71,1.39-3.28,2.03-4.71c0.64-1.43,1.28-2.78,1.92-4.07
		c0.64-1.28,1.32-2.55,2.03-3.8c0.71-1.25,1.5-2.62,2.35-4.12L895.97,739.5z"/>
	<path d="M961.77,756.19c0,3.35-0.73,6.6-2.19,9.74c-1.46,3.14-3.35,6.08-5.67,8.83c-2.32,2.75-4.92,5.28-7.81,7.6
		c-2.89,2.32-5.76,4.32-8.61,5.99c-2.86,1.68-5.56,2.98-8.13,3.91c-2.57,0.93-4.67,1.39-6.31,1.39c-1.43,0-3.26-0.59-5.51-1.77
		c-2.25-1.18-4.41-2.69-6.47-4.55c-2.07-1.85-3.85-3.89-5.35-6.1c-1.5-2.21-2.25-4.35-2.25-6.42c0-3.21,0.7-6.53,2.09-9.95
		c1.39-3.42,3.35-6.7,5.88-9.84c2.53-3.14,5.51-6.01,8.93-8.61c3.42-2.6,7.17-4.73,11.23-6.37l8.45,3.32l13.91-2.78
		c0.64,0,1.41,0.38,2.3,1.12c0.89,0.75,1.75,1.8,2.57,3.16c0.82,1.36,1.51,2.99,2.09,4.92C961.49,751.7,961.77,753.84,961.77,756.19
		z M947.44,759.94c0-1.28-0.07-2.46-0.21-3.53c-0.14-1.07-0.39-2.14-0.75-3.21c-0.36-1.07-0.84-2.21-1.45-3.42
		c-0.61-1.21-1.41-2.6-2.41-4.17l-3.21,0.43c-4.28,2.14-7.85,4.39-10.7,6.74c-2.85,2.35-5.17,4.9-6.95,7.65
		c-1.78,2.75-3.05,5.71-3.8,8.88c-0.75,3.17-1.12,6.65-1.12,10.43c0,0.5,0.07,0.98,0.21,1.44c0.14,0.47,0.46,1.02,0.96,1.66
		c0.5,0.64,1.18,1.39,2.03,2.25c0.86,0.85,2,1.92,3.42,3.21c2.99-1.93,5.94-3.96,8.83-6.1c2.89-2.14,5.46-4.4,7.7-6.79
		c2.25-2.39,4.05-4.87,5.4-7.44C946.76,765.39,947.44,762.72,947.44,759.94z"/>
	<path d="M1028.96,749.13c0,3.07-0.84,6.03-2.51,8.88c-1.68,2.85-3.87,5.37-6.58,7.54c-2.71,2.18-5.74,3.92-9.09,5.24
		c-3.35,1.32-6.71,1.98-10.06,1.98c-1.36,0-2.68-0.54-3.96-1.61c-1.28-1.07-1.93-2.32-1.93-3.74c0-0.71,0.46-1.25,1.39-1.61
		c0.93-0.36,2.21-0.32,3.85,0.11c0.78,0.21,1.84,0.45,3.16,0.7c1.32,0.25,2.94,0.45,4.87,0.59c3-2.28,5.24-4.8,6.74-7.54
		c1.5-2.74,2.43-5.94,2.78-9.58l-5.03-2.35c-5.35,2.07-10.25,5.99-14.71,11.77c-4.46,5.78-8.04,12.98-10.75,21.61
		c-0.85,2.71-1.59,4.87-2.19,6.47c-0.61,1.61-1.18,2.85-1.71,3.75c-0.54,0.89-1.07,1.48-1.61,1.76c-0.53,0.29-1.12,0.43-1.76,0.43
		c-0.93,0-1.96-0.43-3.1-1.28c-1.14-0.86-2.5-2.28-4.06-4.28c-0.57-0.64-0.96-1.28-1.18-1.93c-0.21-0.64-0.2-1.41,0.05-2.3
		c0.25-0.89,0.78-1.98,1.61-3.26c0.82-1.28,2.01-2.89,3.58-4.82c1.07-1.28,1.96-2.37,2.68-3.26c0.71-0.89,1.3-1.71,1.76-2.46
		s0.84-1.43,1.12-2.03c0.28-0.6,0.53-1.3,0.75-2.09c0.71-2.21,1.28-4.17,1.71-5.88c0.43-1.71,0.75-3.42,0.96-5.14
		c0.21-1.71,0.32-3.49,0.32-5.35c0-1.85-0.04-3.99-0.11-6.42l13.48-3.21c-0.85,2.92-1.59,5.51-2.19,7.76
		c-0.61,2.25-1.23,4.65-1.87,7.22c2.14-2.78,4.12-5.1,5.94-6.95c1.82-1.85,3.49-3.33,5.03-4.44c1.53-1.11,2.96-1.91,4.28-2.41
		c1.32-0.5,2.55-0.75,3.69-0.75c1.93,0,3.78,0.27,5.56,0.8c1.78,0.53,3.33,1.23,4.65,2.09c1.32,0.86,2.39,1.82,3.21,2.89
		C1028.55,747.1,1028.96,748.13,1028.96,749.13z"/>
</g>
</svg>
